<?xml version="1.0" encoding="UTF-8"?>
<svg id="Layer_1" xmlns="http://www.w3.org/2000/svg" version="1.1" viewBox="0 0 104.4 49.2">
  <!-- Generator: Adobe Illustrator 29.1.0, SVG Export Plug-In . SVG Version: 2.1.0 Build 142)  -->
  <defs>
    <style>
      .st0 {
        fill: #fff;
      }
    </style>
  </defs>
  <path class="st0" d="M92.3,25c2.3-.3,8.4-1,9.1-3.7s-4.5-4.9-6.8-5.6c-9.8-2.9-20.4-2.9-30.6-2.6-1.4,0-2.9,0-4.3.1-1.5-2.8-2.4-6-3.8-8.8s-1.1-2.9-2.7-2.6-2.7,2.7-3.3,3.5c-2.2,2.8-4.1,5.9-6.1,8.8-3.2.5-6.5.9-9.7,1.6-2.3.5-4.6,1.2-6.8,1.7-.4-1.1-2.2-.4-2.3.6-1.9,1.1-4,1.8-6,2.8-1.3.7-2.6,1.4-3.8,2.2-2-2.7-7.3-7.5-10.9-6.9s-1.4,1-1,2.1c.8,2.2,2.9,4.8,4.1,7s.7,1.3.7,1.4l-6.7,9c-.2,4,5.1.7,6.7-.3,2.8-1.7,5.2-3.9,7.8-5.8,7,2.6,13.9,5.7,21.5,5.9.5.2.5,2.5,2.1,2.7s3.7-2.1,5-2.5l11.2-.4,6.6-.7c.4.1.2,1.9.2,2.4.2,2.6.5,8.7,2.7,10.4,2.7,2.2,4.7-1.9,5.4-4,1.1-3,1.4-6.4,1.7-9.5,5.9-1.1,11.8-2.2,17.5-4,.9-.3,3.9-1.1,4.5-1.7,1.6-1.5-1.5-2.2-2.2-2.9h0Z"/>
  <path d="M92.3,25c.7.7,3.9,1.3,2.2,2.9-.6.6-3.6,1.4-4.5,1.7-5.7,1.7-11.6,2.9-17.5,4-.3,3.2-.7,6.5-1.7,9.5-.7,2.1-2.7,6.1-5.4,4-2.1-1.7-2.5-7.8-2.7-10.4,0-.5.2-2.2-.2-2.4l-6.6.7-11.2.4c-1.3.4-3.7,2.7-5,2.5s-1.6-2.5-2.1-2.7c-7.7-.2-14.5-3.3-21.5-5.9-2.6,1.9-5.1,4.1-7.8,5.8-1.6,1-6.9,4.3-6.7.3l6.7-9c0-.2-.5-1.2-.7-1.4-1.1-2.2-3.2-4.8-4.1-7s-.3-1.8,1-2.1c3.6-.7,8.9,4.2,10.9,6.9,1.2-.8,2.5-1.6,3.8-2.2,2-1,4.1-1.7,6-2.8.1-1,1.8-1.7,2.3-.6,2.3-.5,4.5-1.2,6.8-1.7,3.2-.7,6.4-1.1,9.7-1.6,2-2.9,3.9-6,6.1-8.8.6-.8,2.5-3.3,3.3-3.5,1.6-.3,2.1,1.5,2.7,2.6,1.4,2.9,2.3,6,3.8,8.8,1.4,0,2.9,0,4.3-.1,10.1-.3,20.8-.3,30.6,2.6,2.3.7,7.7,2.3,6.8,5.6s-6.8,3.4-9.1,3.7h0ZM53.7,4.2c-.1-.1-.5.3-.6.4-.5.5-1,1.3-1.4,1.9-2.3,3-4.2,6.2-6.5,9.2-8.8,1.6-17.8,2.9-25.8,7.1-.9.5-3.1,2.1-3.9,2.2-1.4.2-2.1-1.6-2.9-2.5-1.8-2-4.5-3.9-7-4.7,1.6,2.9,3.8,5.6,4.9,8.7l-6.3,8.7c4.2-1.9,7.7-4.9,11.2-7.8.7-.3,3,.6,3.9.9,3.6,1.3,6.8,2.8,10.6,3.8,3.2.8,6.4,1.2,9.8,1.4.9.5.5,1.4.6,2.2.3.2,3.5-2.2,4.3-2.3.8-.1,1.9,0,2.7,0,5.6-.3,11.2-.6,16.8-1.3,1.5.3.7,1.3.7,2.2-.1,1.5.2,4.7.5,6.3.3,2.5,1.3,7.7,3.5,2.7,1.6-3.5,1.5-6.9,2-10.6.1-.7.4-1,1.1-1.2,2.1-.6,5-.8,7.2-1.2,4.3-.9,8.6-2.1,12.8-3.3l.2-.3c-.7-.4-5.3-1.1-3.8-2.6s6.3-1.4,7.6-1.8,4.2-1.1,2-2.1c-1.2-.5-3.5,0-2.9-2.2-4.2-1.8-8.9-2.2-13.4-2.8l-6.8-.4c-5-.4-10.1.4-15.1.4s-1.1-.2-1.5-.5l-4.5-10.7h0Z"/>
  <path class="st0" d="M53.7,4.2l4.5,10.7c.3.3,1,.5,1.5.5,5,0,10.1-.8,15.1-.4l6.8.4c4.5.6,9.2,1,13.4,2.8-.6,2.1,1.7,1.6,2.9,2.2,2.2.9-1.2,1.9-2,2.1-1.3.3-7,1.2-7.6,1.8-1.5,1.4,3.1,2.2,3.8,2.6l-.2.3c-4.2,1.2-8.5,2.4-12.8,3.3-2.2.5-5.2.6-7.2,1.2-.7.2-1,.5-1.1,1.2-.5,3.7-.5,7.1-2,10.6-2.2,5-3.2-.2-3.5-2.7s-.6-4.8-.5-6.3c0-1,.8-1.9-.7-2.2-5.6.7-11.2,1-16.8,1.3-.9,0-1.9-.1-2.7,0-.8.1-4,2.5-4.3,2.3-.2-.8.3-1.7-.6-2.2-3.3-.2-6.5-.6-9.8-1.4-3.8-1-7-2.5-10.6-3.8s-3.1-1.2-3.9-.9c-3.5,2.9-7.1,5.9-11.2,7.8l6.3-8.7c-1.1-3.1-3.3-5.8-4.9-8.7,2.6.7,5.3,2.7,7,4.7.8.8,1.5,2.7,2.9,2.5s3-1.7,3.9-2.2c8-4.2,17-5.6,25.8-7.1,2.3-2.9,4.3-6.2,6.5-9.2s.9-1.4,1.4-1.9.5-.6.6-.4h0ZM86.7,17.5c-1.6.4-.9,2.9.5,2.8s1.6-3.3-.5-2.8ZM73.6,18.4c-.9,0-1,.6-.9,1.3.1,1.6.6,3.5.8,5.2s0,3.3,1.1,3.3.7-2.7.6-3.5-.8-5.6-1.1-6-.3-.3-.5-.3h0ZM79.1,27.2c.1-.1.2-.4.2-.6.2-1.7-.3-5.5-.8-7.1-.3-1.3-1.4-1.7-1.8-.3.2,1.4.6,2.8.7,4.2.1,1,0,2.6.2,3.4s1.1.9,1.5.5h0ZM70,19c-.1,0-.5.2-.5.3-.4.5.3,3.5.4,4.3s.2,3.8.7,4.2c.6.5,1.3.3,1.4-.5.2-1.1-.3-3.9-.5-5.2s-.1-3.5-1.5-3.2Z"/>
  <path d="M73.6,18.4c.2,0,.4.2.5.3.4.5,1,5.1,1.1,6s.6,3.5-.6,3.5-1-2.5-1.1-3.3c-.2-1.6-.7-3.6-.8-5.2s0-1.4.9-1.3Z"/>
  <path d="M70,19c1.3-.2,1.3,2.3,1.5,3.2s.6,4,.5,5.2-.8,1-1.4.5c-.5-.5-.5-3.4-.7-4.2s-.8-3.8-.4-4.3.4-.3.5-.3Z"/>
  <path d="M79.1,27.2c-.4.4-1.4.2-1.5-.5s0-2.4-.2-3.4c-.2-1.4-.5-2.8-.7-4.2.5-1.4,1.5-.9,1.8.3.4,1.7.9,5.5.8,7.1s0,.5-.2.6h0Z"/>
  <path d="M86.7,17.5c2.1-.5,2.5,2.6.5,2.8s-2.1-2.5-.5-2.8Z"/>
</svg>